<svg width="25" height="25" viewBox="0 0 25 25" fill="none" xmlns="http://www.w3.org/2000/svg">
  <path opacity="0.3"
    d="M20.3776 12.5025L12.0001 21L3.62263 12.5025C2.74344 11.6233 2.24951 10.4308 2.24951 9.18748C2.24951 7.94411 2.74344 6.75167 3.62263 5.87248C4.50182 4.99328 5.69426 4.49936 6.93763 4.49936C8.181 4.49936 9.37344 4.99328 10.2526 5.87248L12.0001 7.49998L13.7476 5.87248C14.183 5.43715 14.6998 5.09182 15.2686 4.85622C15.8374 4.62062 16.447 4.49936 17.0626 4.49936C17.6783 4.49936 18.2879 4.62062 18.8567 4.85622C19.4255 5.09182 19.9423 5.43715 20.3776 5.87248C20.813 6.30781 21.1583 6.82462 21.3939 7.39341C21.6295 7.9622 21.7507 8.57182 21.7507 9.18748C21.7507 9.80313 21.6295 10.4128 21.3939 10.9815C21.1583 11.5503 20.813 12.0671 20.3776 12.5025Z"
    fill="#FE4DCD" />
  <path
    d="M20.9064 5.34374C19.8874 4.32735 18.5075 3.75579 17.0683 3.75403C15.6291 3.75227 14.2478 4.32047 13.2264 5.33436L12.0001 6.47342L10.7729 5.33061C9.75176 4.3123 8.3679 3.74136 6.92577 3.74338C5.48365 3.7454 4.10139 4.32023 3.08308 5.34139C2.06478 6.36256 1.49383 7.74642 1.49585 9.18855C1.49788 10.6307 2.0727 12.0129 3.09386 13.0312L11.4704 21.5306C11.5402 21.6015 11.6234 21.6578 11.7151 21.6962C11.8069 21.7346 11.9053 21.7544 12.0048 21.7544C12.1043 21.7544 12.2027 21.7346 12.2945 21.6962C12.3862 21.6578 12.4694 21.6015 12.5392 21.5306L20.9064 13.0312C21.9254 12.0116 22.4978 10.629 22.4978 9.18749C22.4978 7.74593 21.9254 6.36337 20.9064 5.34374ZM19.8423 11.9775L12.0001 19.9312L4.15324 11.97C3.41478 11.2315 2.99991 10.23 2.99991 9.18561C2.99991 8.14127 3.41478 7.1397 4.15324 6.40124C4.8917 5.66277 5.89327 5.24791 6.93761 5.24791C7.98196 5.24791 8.98353 5.66277 9.72199 6.40124L9.74074 6.41999L11.4892 8.04655C11.628 8.17571 11.8105 8.24751 12.0001 8.24751C12.1897 8.24751 12.3723 8.17571 12.5111 8.04655L14.2595 6.41999L14.2782 6.40124C15.0172 5.66327 16.019 5.24908 17.0634 5.24979C18.1077 5.25049 19.109 5.66603 19.847 6.40499C20.585 7.14395 20.9991 8.14579 20.9984 9.19014C20.9977 10.2345 20.5822 11.2358 19.8432 11.9737L19.8423 11.9775Z"
    fill="#111111" />
</svg>