<svg xmlns="http://www.w3.org/2000/svg" fill="none" viewBox="0 0 171 57">
  <path fill="#FE4DCD" stroke="#111" d="M50.109 2.475c-.779 11.16-8.111 15.681-11.68 16.546l3.244 7.787C55.69 20.319 53.137 7.882 50.11 2.475ZM3.376 2.475c.779 11.16 8.111 15.681 11.68 16.546l-3.244 7.787C-2.204 20.319.348 7.882 3.376 2.475Z"/>
  <path fill="#FE4DCD" stroke="#111" d="m10.211 40.497-.003-.004A21.601 21.601 0 0 1 5.882 27.48c0-11.924 9.59-21.585 21.413-21.585 11.822 0 21.412 9.66 21.412 21.585 0 10.217-7.041 18.774-16.494 21.013l-.314.075-.062.317c-.076.395-.037.968.044 1.575.084.628.224 1.36.389 2.107.243 1.107.543 2.266.803 3.203-12.186-3.94-20.308-11.803-22.862-15.274Z"/>
  <path fill="#111" d="M21.177 37.873c-.43 0-.773-.156-1.03-.469-.25-.304-.376-.71-.376-1.219V19.71c0-.508.125-.914.375-1.219.258-.304.602-.457 1.031-.457.235 0 .457.043.668.13.211.077.434.183.668.316l13.664 7.91c.493.28.832.535 1.02.761.195.22.293.485.293.797 0 .313-.098.582-.293.809-.188.219-.527.473-1.02.762l-13.664 7.898a4.03 4.03 0 0 1-.668.328 1.752 1.752 0 0 1-.668.129Z"/>
  <path fill="#fff" d="M75.375 9.446v16.548H70.21v-8.25l-2.548 8.25h-4.44l-2.548-8.25v8.25h-5.19V9.446h6.358l3.647 9.933 3.552-9.933h6.334ZM88.328 23.493h-5.516l-.818 2.501h-5.446l6.054-16.548h5.983l6.03 16.548h-5.469l-.818-2.5Zm-1.262-3.903-1.496-4.605-1.496 4.605h2.992ZM111.664 25.994h-5.188l-5.493-8.32v8.32h-5.189V9.446h5.189l5.493 8.46v-8.46h5.188v16.548ZM124.62 23.493h-5.516l-.818 2.501h-5.446l6.054-16.548h5.983l6.03 16.548h-5.469l-.818-2.5Zm-1.262-3.903-1.496-4.605-1.496 4.605h2.992ZM75.375 32.819v16.548H70.21v-8.25l-2.548 8.25h-4.44l-2.548-8.25v8.25h-5.19V32.819h6.358l3.647 9.933 3.552-9.933h6.334ZM88.328 46.866h-5.516l-.818 2.5h-5.446l6.054-16.547h5.983l6.03 16.548h-5.469l-.818-2.501Zm-1.262-3.903-1.496-4.605-1.496 4.605h2.992ZM111.664 49.367h-5.188l-5.493-8.32v8.32h-5.189V32.819h5.189l5.493 8.46v-8.46h5.188v16.548ZM124.62 46.866h-5.516l-.818 2.5h-5.446l6.054-16.547h5.983l6.03 16.548h-5.469l-.818-2.501Zm-1.262-3.903-1.496-4.605-1.496 4.605h2.992ZM134.657 49.554c-.904 0-1.628-.242-2.174-.725a2.333 2.333 0 0 1-.818-1.823c0-.748.273-1.363.818-1.846.546-.499 1.27-.748 2.174-.748.888 0 1.605.25 2.15.748.546.483.819 1.098.819 1.846a2.33 2.33 0 0 1-.819 1.823c-.545.483-1.262.725-2.15.725ZM152.545 32.819v4.113h-4.394v12.435h-5.189V36.933h-4.347v-4.114h13.93ZM170.618 32.819l-5.563 16.548h-6.708l-5.563-16.548h5.516l3.412 11.383 3.39-11.383h5.516Z"/>
</svg>
