<svg xmlns="http://www.w3.org/2000/svg" fill="none" viewBox="0 0 147 47">
  <path fill="#FE4DCD" stroke="#111" d="M42.016 2c-.65 9.292-6.775 13.056-9.755 13.776l2.71 6.483C46.675 16.857 44.544 6.502 42.015 2ZM2.985 2c.65 9.292 6.774 13.056 9.755 13.776l-2.71 6.483C-1.676 16.857.455 6.502 2.985 2Z"/>
  <path fill="#FE4DCD" stroke="#111" d="m8.76 33.605-.004-.003A17.863 17.863 0 0 1 5.16 22.82c0-9.881 7.972-17.887 17.801-17.887 9.83 0 17.801 8.006 17.801 17.887 0 8.465-5.853 15.556-13.712 17.413l-.314.074-.061.317c-.067.344-.033.834.035 1.34.07.525.188 1.137.326 1.76.19.865.423 1.768.63 2.521-10.079-3.29-16.793-9.775-18.907-12.64Z"/>
  <path fill="#fff" d="M18.373 29.54a.952.952 0 0 1-.773-.352c-.188-.228-.281-.533-.281-.914V15.917c0-.381.093-.686.28-.914.194-.229.452-.343.774-.343.176 0 .343.032.501.097.158.058.325.137.501.237l10.248 5.933c.37.21.624.401.765.57.146.165.22.364.22.599a.898.898 0 0 1-.22.606c-.14.164-.396.354-.765.571l-10.248 5.924a3.024 3.024 0 0 1-.5.246 1.314 1.314 0 0 1-.502.097Z"/>
  <path fill="#111" d="M61.416 9.672V21H57.88v-5.648L56.136 21h-3.04l-1.744-5.648V21H47.8V9.672h4.352l2.496 6.8 2.432-6.8h4.336Zm8.867 9.616h-3.776L65.947 21h-3.728l4.144-11.328h4.096L74.587 21h-3.744l-.56-1.712Zm-.864-2.672-1.024-3.152-1.024 3.152h2.048ZM86.258 21h-3.552l-3.76-5.696V21h-3.552V9.672h3.552l3.76 5.792V9.672h3.552V21Zm8.868-1.712H91.35L90.79 21h-3.728l4.145-11.328h4.096L99.43 21h-3.744l-.56-1.712Zm-.864-2.672-1.023-3.152-1.025 3.152h2.049ZM61.416 27.953v11.328H57.88v-5.648l-1.744 5.648h-3.04l-1.744-5.648v5.648H47.8V27.953h4.352l2.496 6.8 2.432-6.8h4.336Zm8.867 9.616h-3.776l-.56 1.712h-3.728l4.144-11.328h4.096l4.128 11.328h-3.744l-.56-1.712Zm-.864-2.672-1.024-3.152-1.024 3.152h2.048Zm16.839 4.384h-3.552l-3.76-5.696v5.696h-3.552V27.953h3.552l3.76 5.792v-5.792h3.552v11.328Zm8.868-1.712H91.35l-.56 1.712h-3.728l4.145-11.328h4.096l4.127 11.328h-3.744l-.56-1.712Zm-.864-2.672-1.023-3.152-1.025 3.152h2.049Zm7.736 4.512c-.619 0-1.115-.165-1.488-.496a1.595 1.595 0 0 1-.56-1.248c0-.512.186-.933.56-1.264.373-.341.869-.512 1.488-.512.608 0 1.098.17 1.472.512.373.33.56.752.56 1.264 0 .502-.187.918-.56 1.248-.374.33-.864.496-1.472.496Zm12.245-11.456v2.816h-3.008v8.512h-3.552V30.77h-2.976v-2.816h9.536Zm12.371 0-3.808 11.328h-4.592l-3.808-11.328h3.776l2.336 7.792 2.32-7.792h3.776Z"/>
</svg>
